<svg xmlns="http://www.w3.org/2000/svg" xmlns:xlink="http://www.w3.org/1999/xlink" width="512" height="512" viewBox="0 0 512 512"><defs><clipPath id="b"><rect width="512" height="512"/></clipPath></defs><g id="a" clip-path="url(#b)"><rect width="512" height="512" fill="#046afb"/><g transform="translate(58 58)"><path d="M0,0H395.822V395.822H0Z" fill="none"/><path d="M285.645,249.389v82.463H252.66V249.389A181.438,181.438,0,0,1,358.987,84.2l13.656,30.016a148.466,148.466,0,0,0-87,135.173Zm-164.926,0v82.463H87.734V249.389A148.471,148.471,0,0,0,.724,114.227L14.392,84.2a181.451,181.451,0,0,1,106.328,165.19Zm65.97-82.463a82.463,82.463,0,1,1,82.463-82.463A82.463,82.463,0,0,1,186.69,166.926Zm0-32.985a49.478,49.478,0,1,0-49.478-49.478A49.478,49.478,0,0,0,186.69,133.941Z" transform="translate(11.221 30.985)" fill="#fff"/><path d="M-87.711-65.422,126.63,129.791" transform="translate(148.407 221.343)" fill="#fff" stroke="#fff" stroke-width="30"/></g></g></svg>