<!DOCTYPE svg PUBLIC "-//W3C//DTD SVG 1.1//EN" "http://www.w3.org/Graphics/SVG/1.1/DTD/svg11.dtd">
<!-- Uploaded to: SVG Repo, www.svgrepo.com, Transformed by: SVG Repo Mixer Tools -->
<svg fill="#000000" version="1.1" id="Capa_1" xmlns="http://www.w3.org/2000/svg" xmlns:xlink="http://www.w3.org/1999/xlink" width="64px" height="64px" viewBox="0 0 123.523 123.523" xml:space="preserve">
<g id="SVGRepo_bgCarrier" stroke-width="0"/>
<g id="SVGRepo_tracerCarrier" stroke-linecap="round" stroke-linejoin="round"/>
<g id="SVGRepo_iconCarrier"> <g> <g> <circle cx="80.19" cy="12.411" r="12.411"/> <path d="M106.398,62.473c-2.883-19.647-7.245-28.063-17.955-34.632c-0.207-0.126-0.426-0.217-0.646-0.311 c-1.381-0.921-2.934-1.602-4.516-1.988l-3.092,3.111l-2.997-3.147c-0.011,0.002-0.021,0.006-0.031,0.006 c-2.293,0.55-4.522,1.712-6.265,3.345c-9.569,6.438-13.645,14.965-16.38,33.617c-0.387,2.633,1.436,5.08,4.067,5.467 c0.237,0.033,0.473,0.053,0.706,0.053c2.351,0,4.408-1.725,4.762-4.12c0.983-6.711,2.123-11.614,3.436-15.319v15.169 c0,1.299,0.252,2.506,0.691,3.619c-0.033,0.25-0.056,0.504-0.056,0.762l0.002,46.139c0.001,3.146,2.55,5.695,5.695,5.695 s5.694-2.553,5.692-5.695l-0.002-39.594c0.226,0.01,0.451,0.023,0.678,0.023c0.046,0,0.09-0.004,0.134-0.006l-0.002,39.575 c0,3.144,2.55,5.694,5.694,5.694s5.694-2.551,5.694-5.694l0.003-45.856c0.745-1.381,1.18-2.943,1.18-4.662V47.128 c1.541,3.849,2.854,9.136,3.972,16.743c0.351,2.396,2.41,4.12,4.761,4.12c0.233,0,0.469-0.019,0.707-0.052 C104.962,67.553,106.784,65.105,106.398,62.473z M80.218,53.216H80.16l-2.992-4.095l2.317-15.498 c0.231-0.624,0.331-1.285,0.292-1.956l0.383-2.553h0.059l2.992,20.007L80.218,53.216z"/> <path d="M64.693,110.491c-4.328,3.833-10.013,6.166-16.234,6.166c-13.521,0-24.521-10.999-24.521-24.521 c0-13.521,11-24.52,24.521-24.52c2.013,0,3.969,0.249,5.843,0.708c-0.696-0.459-1.318-1.034-1.831-1.722 c-1.158-1.561-1.643-3.475-1.359-5.396c0.016-0.113,0.033-0.22,0.051-0.331c-0.893-0.077-1.793-0.125-2.703-0.125 c-17.306,0-31.386,14.08-31.386,31.385c0,17.307,14.08,31.387,31.386,31.387c6.574,0,12.68-2.037,17.729-5.506 c-0.938-1.325-1.494-2.94-1.494-4.685v-2.842H64.693z"/> <polygon points="45.026,88.705 31.583,88.705 31.583,95.571 51.891,95.571 51.891,74.189 45.026,74.189 "/> </g> </g> </g>
</svg>